# Blender 3.5.1
# www.blender.org
mtllib character.mtl
o Cube
v 0.468625 1.000000 -0.190651
v 0.718762 -1.000000 -0.410804
v 0.468625 1.000000 0.190651
v 0.718762 -1.000000 0.410804
v -0.468625 1.000000 -0.190651
v -0.718762 -1.000000 -0.410804
v -0.468625 1.000000 0.190651
v -0.718762 -1.000000 0.410804
v -0.443079 0.632813 0.122203
v -1.043611 -0.180630 0.122203
v -0.629317 0.781524 0.122203
v -1.229849 -0.031919 0.122203
v -0.443079 0.632813 -0.097522
v -1.043611 -0.180630 -0.097522
v -0.629317 0.781524 -0.097522
v -1.229849 -0.031919 -0.097522
v -1.202130 -0.054052 -0.060985
v -1.247286 -0.110603 -0.060985
v -1.202130 -0.054052 -0.097522
v -1.247286 -0.110603 -0.097522
v -1.229848 -0.031919 -0.060985
v -1.275005 -0.088470 -0.060985
v -1.229848 -0.031919 -0.097522
v -1.275005 -0.088470 -0.097522
v -1.191429 -0.062597 -0.000816
v -1.228922 -0.109551 -0.000816
v -1.191429 -0.062597 -0.041113
v -1.228922 -0.109551 -0.041113
v -1.229848 -0.031919 -0.000816
v -1.267342 -0.078873 -0.000816
v -1.229848 -0.031919 -0.041113
v -1.267342 -0.078873 -0.041113
v -1.192585 -0.061674 0.045901
v -1.244786 -0.127048 0.045901
v -1.192585 -0.061674 0.012341
v -1.244786 -0.127048 0.012341
v -1.229848 -0.031919 0.045901
v -1.282050 -0.097293 0.045901
v -1.229848 -0.031919 0.012341
v -1.282050 -0.097293 0.012341
v -1.197406 -0.057824 0.104256
v -1.271494 -0.150608 0.104256
v -1.197406 -0.057824 0.067527
v -1.271494 -0.150608 0.067527
v -1.229849 -0.031919 0.104256
v -1.303937 -0.124703 0.104256
v -1.229849 -0.031919 0.067527
v -1.303937 -0.124703 0.067527
v 1.183893 -0.037199 0.122204
v 1.183893 -0.037199 0.254038
v 1.138474 -0.037199 0.122204
v 1.138474 -0.037199 0.254038
v 1.183893 0.011376 0.122204
v 1.183893 0.011376 0.254038
v 1.138474 0.011376 0.122204
v 1.138474 0.011376 0.254038
v -0.367464 -1.000000 0.198218
v -0.367464 -1.791457 0.198218
v -0.367464 -1.000000 -0.091783
v -0.367464 -1.791457 -0.091783
v -0.682295 -1.000000 0.198218
v -0.682295 -1.791457 0.198218
v -0.682295 -1.000000 -0.091783
v -0.682295 -1.791457 -0.091783
v -0.373094 -1.788816 0.198218
v -0.373094 -1.788816 0.461856
v -0.682295 -1.788816 0.198218
v -0.682295 -1.788816 0.461856
v -0.373094 -1.682129 0.198218
v -0.373094 -1.682129 0.461856
v -0.682295 -1.682129 0.198218
v -0.682295 -1.682129 0.461856
v -0.068927 1.000000 0.043691
v -0.068927 1.289453 0.043691
v -0.068927 1.000000 -0.045380
v -0.068927 1.289453 -0.045380
v 0.034251 1.000000 0.043691
v 0.034251 1.289453 0.043691
v 0.034251 1.000000 -0.045380
v 0.034251 1.289453 -0.045380
v -0.161079 1.127586 0.133718
v -0.161079 1.239743 0.205527
v -0.255532 1.239743 0.133718
v -0.161079 1.696245 0.205527
v -0.161079 1.808402 0.133718
v -0.255532 1.696245 0.133718
v -0.161079 1.127586 -0.147045
v -0.255532 1.239743 -0.147045
v -0.161079 1.239743 -0.218853
v -0.161079 1.808402 -0.147045
v -0.161079 1.696245 -0.218853
v -0.255532 1.696245 -0.147045
v 0.161492 1.127586 0.133718
v 0.255945 1.239743 0.133718
v 0.161492 1.239743 0.205527
v 0.161492 1.808402 0.133718
v 0.161492 1.696245 0.205527
v 0.255945 1.696245 0.133718
v 0.161492 1.127586 -0.147045
v 0.161492 1.239743 -0.218853
v 0.255945 1.239743 -0.147045
v 0.161492 1.808402 -0.147045
v 0.255945 1.696245 -0.147045
v 0.161492 1.696245 -0.218853
v -0.468625 1.000000 -0.190651
v -0.718762 -1.000000 -0.410804
v -0.468625 1.000000 0.190651
v -0.718762 -1.000000 0.410804
v 0.468625 1.000000 -0.190651
v 0.718762 -1.000000 -0.410804
v 0.468625 1.000000 0.190651
v 0.718762 -1.000000 0.410804
v 0.443079 0.632813 0.122203
v 1.043611 -0.180630 0.122203
v 0.629317 0.781524 0.122203
v 1.229849 -0.031919 0.122203
v 0.443079 0.632813 -0.097522
v 1.043611 -0.180630 -0.097522
v 0.629317 0.781524 -0.097522
v 1.229849 -0.031919 -0.097522
v 1.202130 -0.054052 -0.060985
v 1.247286 -0.110603 -0.060985
v 1.202130 -0.054052 -0.097522
v 1.247286 -0.110603 -0.097522
v 1.229848 -0.031919 -0.060985
v 1.275005 -0.088470 -0.060985
v 1.229848 -0.031919 -0.097522
v 1.275005 -0.088470 -0.097522
v 1.191429 -0.062597 -0.000816
v 1.228922 -0.109551 -0.000816
v 1.191429 -0.062597 -0.041113
v 1.228922 -0.109551 -0.041113
v 1.229848 -0.031919 -0.000816
v 1.267342 -0.078873 -0.000816
v 1.229848 -0.031919 -0.041113
v 1.267342 -0.078873 -0.041113
v 1.192585 -0.061674 0.045901
v 1.244786 -0.127048 0.045901
v 1.192585 -0.061674 0.012341
v 1.244786 -0.127048 0.012341
v 1.229848 -0.031919 0.045901
v 1.282050 -0.097293 0.045901
v 1.229848 -0.031919 0.012341
v 1.282050 -0.097293 0.012341
v 1.197406 -0.057824 0.104256
v 1.271494 -0.150608 0.104256
v 1.197406 -0.057824 0.067527
v 1.271494 -0.150608 0.067527
v 1.229849 -0.031919 0.104256
v 1.303937 -0.124703 0.104256
v 1.229849 -0.031919 0.067527
v 1.303937 -0.124703 0.067527
v -1.183893 -0.037199 0.122204
v -1.183893 -0.037199 0.254038
v -1.138474 -0.037199 0.122204
v -1.138474 -0.037199 0.254038
v -1.183893 0.011376 0.122204
v -1.183893 0.011376 0.254038
v -1.138474 0.011376 0.122204
v -1.138474 0.011376 0.254038
v 0.367464 -1.000000 0.198218
v 0.367464 -1.791457 0.198218
v 0.367464 -1.000000 -0.091783
v 0.367464 -1.791457 -0.091783
v 0.682295 -1.000000 0.198218
v 0.682295 -1.791457 0.198218
v 0.682295 -1.000000 -0.091783
v 0.682295 -1.791457 -0.091783
v 0.373094 -1.788816 0.198218
v 0.373094 -1.788816 0.461856
v 0.682295 -1.788816 0.198218
v 0.682295 -1.788816 0.461856
v 0.373094 -1.682129 0.198218
v 0.373094 -1.682129 0.461856
v 0.682295 -1.682129 0.198218
v 0.682295 -1.682129 0.461856
v 0.068927 1.000000 0.043691
v 0.068927 1.289453 0.043691
v 0.068927 1.000000 -0.045380
v 0.068927 1.289453 -0.045380
v -0.034251 1.000000 0.043691
v -0.034251 1.289453 0.043691
v -0.034251 1.000000 -0.045380
v -0.034251 1.289453 -0.045380
v 0.161079 1.127586 0.133718
v 0.161079 1.239743 0.205527
v 0.255532 1.239743 0.133718
v 0.161079 1.696245 0.205527
v 0.161079 1.808402 0.133718
v 0.255532 1.696245 0.133718
v 0.161079 1.127586 -0.147045
v 0.255532 1.239743 -0.147045
v 0.161079 1.239743 -0.218853
v 0.161079 1.808402 -0.147045
v 0.161079 1.696245 -0.218853
v 0.255532 1.696245 -0.147045
v -0.161492 1.127586 0.133718
v -0.255945 1.239743 0.133718
v -0.161492 1.239743 0.205527
v -0.161492 1.808402 0.133718
v -0.161492 1.696245 0.205527
v -0.255945 1.696245 0.133718
v -0.161492 1.127586 -0.147045
v -0.161492 1.239743 -0.218853
v -0.255945 1.239743 -0.147045
v -0.161492 1.808402 -0.147045
v -0.255945 1.696245 -0.147045
v -0.161492 1.696245 -0.218853
vn -0.0000 1.0000 -0.0000
vn -0.0000 0.1094 0.9940
vn -0.9923 0.1241 -0.0000
vn -0.0000 -1.0000 -0.0000
vn 0.9923 0.1241 -0.0000
vn -0.0000 0.1094 -0.9940
vn -0.0000 -0.0000 -1.0000
vn 0.8045 -0.5939 -0.0000
vn -0.0000 -0.0000 1.0000
vn -0.8045 0.5939 -0.0000
vn -0.6240 -0.7814 -0.0000
vn 0.6240 0.7814 -0.0000
vn 0.7814 -0.6240 -0.0000
vn -0.7814 0.6240 -0.0000
vn -1.0000 -0.0000 -0.0000
vn 1.0000 -0.0000 -0.0000
vn -0.5392 -0.4541 0.7093
vn -0.5392 0.4541 0.7093
vn -0.5392 -0.4541 -0.7093
vn -0.5392 0.4541 -0.7093
vn 0.5392 -0.4541 0.7093
vn 0.5392 0.4541 0.7093
vn 0.5392 -0.4541 -0.7093
vn 0.5392 0.4541 -0.7093
vn -0.7649 -0.6442 -0.0000
vn -0.6052 -0.0000 0.7961
vn -0.7649 0.6442 -0.0000
vn -0.6052 -0.0000 -0.7961
vn -0.0000 -0.5392 -0.8422
vn -0.0000 0.5392 -0.8422
vn 0.6052 -0.0000 -0.7961
vn 0.7649 -0.6442 -0.0000
vn 0.7649 0.6442 -0.0000
vn 0.6052 -0.0000 0.7961
vn -0.0000 -0.5392 0.8422
vn -0.0000 0.5392 0.8422
vn -0.8045 -0.5939 -0.0000
vn 0.8045 0.5939 -0.0000
vn 0.6240 -0.7814 -0.0000
vn -0.6240 0.7814 -0.0000
vn -0.7814 -0.6240 -0.0000
vn 0.7814 0.6240 -0.0000
vt 0.250043 0.500000
vt 0.500000 0.500000
vt 0.250043 0.250043
vt 0.500000 0.250043
vt 0.000087 0.500000
vt 0.250043 0.749957
vt 0.749957 0.500000
vt 0.500000 0.749957
vt 0.000087 0.250043
vt 0.250043 0.000087
vt 0.250043 0.999913
vt 0.500000 0.000087
vt 0.500000 0.999913
vt 0.749957 0.250043
vt 0.375000 0.000000
vt 0.375000 1.000000
vt 0.125000 0.750000
vt 0.625000 0.000000
vt 0.625000 1.000000
vt 0.875000 0.750000
vt 0.375000 0.250000
vt 0.125000 0.500000
vt 0.625000 0.250000
vt 0.875000 0.500000
vt 0.375000 0.750000
vt 0.625000 0.750000
vt 0.375000 0.500000
vt 0.625000 0.500000
vt 0.375000 0.000000
vt 0.375000 1.000000
vt 0.125000 0.750000
vt 0.625000 0.000000
vt 0.625000 1.000000
vt 0.875000 0.750000
vt 0.375000 0.250000
vt 0.125000 0.500000
vt 0.625000 0.250000
vt 0.875000 0.500000
vt 0.375000 0.750000
vt 0.625000 0.750000
vt 0.375000 0.500000
vt 0.625000 0.500000
vt 0.375000 0.000000
vt 0.375000 1.000000
vt 0.125000 0.750000
vt 0.625000 0.000000
vt 0.625000 1.000000
vt 0.875000 0.750000
vt 0.375000 0.250000
vt 0.125000 0.500000
vt 0.625000 0.250000
vt 0.875000 0.500000
vt 0.375000 0.750000
vt 0.625000 0.750000
vt 0.375000 0.500000
vt 0.625000 0.500000
vt 0.375000 0.000000
vt 0.375000 1.000000
vt 0.125000 0.750000
vt 0.625000 0.000000
vt 0.625000 1.000000
vt 0.875000 0.750000
vt 0.375000 0.250000
vt 0.125000 0.500000
vt 0.625000 0.250000
vt 0.875000 0.500000
vt 0.375000 0.750000
vt 0.625000 0.750000
vt 0.375000 0.500000
vt 0.625000 0.500000
vt 0.375000 0.000000
vt 0.375000 1.000000
vt 0.125000 0.750000
vt 0.625000 0.000000
vt 0.625000 1.000000
vt 0.875000 0.750000
vt 0.375000 0.250000
vt 0.125000 0.500000
vt 0.625000 0.250000
vt 0.875000 0.500000
vt 0.375000 0.750000
vt 0.625000 0.750000
vt 0.375000 0.500000
vt 0.625000 0.500000
vt 0.375000 0.000000
vt 0.375000 1.000000
vt 0.125000 0.750000
vt 0.625000 0.000000
vt 0.625000 1.000000
vt 0.875000 0.750000
vt 0.375000 0.250000
vt 0.125000 0.500000
vt 0.625000 0.250000
vt 0.875000 0.500000
vt 0.375000 0.750000
vt 0.625000 0.750000
vt 0.375000 0.500000
vt 0.625000 0.500000
vt 0.375000 0.000000
vt 0.375000 1.000000
vt 0.125000 0.750000
vt 0.625000 0.000000
vt 0.625000 1.000000
vt 0.875000 0.750000
vt 0.375000 0.250000
vt 0.125000 0.500000
vt 0.625000 0.250000
vt 0.875000 0.500000
vt 0.375000 0.750000
vt 0.625000 0.750000
vt 0.375000 0.500000
vt 0.625000 0.500000
vt 0.375000 0.000000
vt 0.375000 1.000000
vt 0.125000 0.750000
vt 0.625000 0.000000
vt 0.625000 1.000000
vt 0.875000 0.750000
vt 0.375000 0.250000
vt 0.125000 0.500000
vt 0.625000 0.250000
vt 0.875000 0.500000
vt 0.375000 0.750000
vt 0.625000 0.750000
vt 0.375000 0.500000
vt 0.625000 0.500000
vt 0.375000 0.000000
vt 0.375000 1.000000
vt 0.125000 0.750000
vt 0.625000 0.000000
vt 0.625000 1.000000
vt 0.875000 0.750000
vt 0.375000 0.250000
vt 0.125000 0.500000
vt 0.625000 0.250000
vt 0.875000 0.500000
vt 0.375000 0.750000
vt 0.625000 0.750000
vt 0.375000 0.500000
vt 0.625000 0.500000
vt 0.171167 0.707698
vt 0.416185 0.953833
vt 0.416185 0.000000
vt 0.171167 0.750000
vt 0.125000 0.707698
vt 0.416185 0.042302
vt 0.583815 0.000000
vt 0.583815 0.953833
vt 0.828833 0.707698
vt 0.625000 0.042302
vt 0.625000 0.953833
vt 0.583815 0.042302
vt 0.171167 0.542302
vt 0.125000 0.542302
vt 0.416185 0.207698
vt 0.416185 0.296167
vt 0.171167 0.500000
vt 0.828833 0.542302
vt 0.625000 0.207698
vt 0.625000 0.296167
vt 0.583815 0.250000
vt 0.583815 0.296167
vt 0.583815 0.207698
vt 0.328833 0.707698
vt 0.375000 0.707698
vt 0.416185 0.707698
vt 0.416185 0.796167
vt 0.328833 0.750000
vt 0.671167 0.707698
vt 0.625000 0.796167
vt 0.583815 0.796167
vt 0.583815 0.750000
vt 0.583815 0.707698
vt 0.328833 0.542302
vt 0.328833 0.500000
vt 0.416185 0.453833
vt 0.375000 0.542302
vt 0.416185 0.542302
vt 0.625000 0.453833
vt 0.671167 0.542302
vt 0.583815 0.500000
vt 0.583815 0.542302
vt 0.583815 0.453833
vt 0.250043 0.500000
vt 0.500000 0.500000
vt 0.250043 0.250043
vt 0.500000 0.250043
vt 0.000087 0.500000
vt 0.250043 0.749957
vt 0.749957 0.500000
vt 0.500000 0.749957
vt 0.000087 0.250043
vt 0.250043 0.000087
vt 0.250043 0.999913
vt 0.500000 0.000087
vt 0.500000 0.999913
vt 0.749957 0.250043
vt 0.375000 0.000000
vt 0.375000 1.000000
vt 0.125000 0.750000
vt 0.625000 0.000000
vt 0.625000 1.000000
vt 0.875000 0.750000
vt 0.375000 0.250000
vt 0.125000 0.500000
vt 0.625000 0.250000
vt 0.875000 0.500000
vt 0.375000 0.750000
vt 0.625000 0.750000
vt 0.375000 0.500000
vt 0.625000 0.500000
vt 0.375000 0.000000
vt 0.375000 1.000000
vt 0.125000 0.750000
vt 0.625000 0.000000
vt 0.625000 1.000000
vt 0.875000 0.750000
vt 0.375000 0.250000
vt 0.125000 0.500000
vt 0.625000 0.250000
vt 0.875000 0.500000
vt 0.375000 0.750000
vt 0.625000 0.750000
vt 0.375000 0.500000
vt 0.625000 0.500000
vt 0.375000 0.000000
vt 0.375000 1.000000
vt 0.125000 0.750000
vt 0.625000 0.000000
vt 0.625000 1.000000
vt 0.875000 0.750000
vt 0.375000 0.250000
vt 0.125000 0.500000
vt 0.625000 0.250000
vt 0.875000 0.500000
vt 0.375000 0.750000
vt 0.625000 0.750000
vt 0.375000 0.500000
vt 0.625000 0.500000
vt 0.375000 0.000000
vt 0.375000 1.000000
vt 0.125000 0.750000
vt 0.625000 0.000000
vt 0.625000 1.000000
vt 0.875000 0.750000
vt 0.375000 0.250000
vt 0.125000 0.500000
vt 0.625000 0.250000
vt 0.875000 0.500000
vt 0.375000 0.750000
vt 0.625000 0.750000
vt 0.375000 0.500000
vt 0.625000 0.500000
vt 0.375000 0.000000
vt 0.375000 1.000000
vt 0.125000 0.750000
vt 0.625000 0.000000
vt 0.625000 1.000000
vt 0.875000 0.750000
vt 0.375000 0.250000
vt 0.125000 0.500000
vt 0.625000 0.250000
vt 0.875000 0.500000
vt 0.375000 0.750000
vt 0.625000 0.750000
vt 0.375000 0.500000
vt 0.625000 0.500000
vt 0.375000 0.000000
vt 0.375000 1.000000
vt 0.125000 0.750000
vt 0.625000 0.000000
vt 0.625000 1.000000
vt 0.875000 0.750000
vt 0.375000 0.250000
vt 0.125000 0.500000
vt 0.625000 0.250000
vt 0.875000 0.500000
vt 0.375000 0.750000
vt 0.625000 0.750000
vt 0.375000 0.500000
vt 0.625000 0.500000
vt 0.375000 0.000000
vt 0.375000 1.000000
vt 0.125000 0.750000
vt 0.625000 0.000000
vt 0.625000 1.000000
vt 0.875000 0.750000
vt 0.375000 0.250000
vt 0.125000 0.500000
vt 0.625000 0.250000
vt 0.875000 0.500000
vt 0.375000 0.750000
vt 0.625000 0.750000
vt 0.375000 0.500000
vt 0.625000 0.500000
vt 0.375000 0.000000
vt 0.375000 1.000000
vt 0.125000 0.750000
vt 0.625000 0.000000
vt 0.625000 1.000000
vt 0.875000 0.750000
vt 0.375000 0.250000
vt 0.125000 0.500000
vt 0.625000 0.250000
vt 0.875000 0.500000
vt 0.375000 0.750000
vt 0.625000 0.750000
vt 0.375000 0.500000
vt 0.625000 0.500000
vt 0.375000 0.000000
vt 0.375000 1.000000
vt 0.125000 0.750000
vt 0.625000 0.000000
vt 0.625000 1.000000
vt 0.875000 0.750000
vt 0.375000 0.250000
vt 0.125000 0.500000
vt 0.625000 0.250000
vt 0.875000 0.500000
vt 0.375000 0.750000
vt 0.625000 0.750000
vt 0.375000 0.500000
vt 0.625000 0.500000
vt 0.171167 0.707698
vt 0.416185 0.953833
vt 0.416185 0.000000
vt 0.171167 0.750000
vt 0.125000 0.707698
vt 0.416185 0.042302
vt 0.583815 0.000000
vt 0.583815 0.953833
vt 0.828833 0.707698
vt 0.625000 0.042302
vt 0.625000 0.953833
vt 0.583815 0.042302
vt 0.171167 0.542302
vt 0.125000 0.542302
vt 0.416185 0.207698
vt 0.416185 0.296167
vt 0.171167 0.500000
vt 0.828833 0.542302
vt 0.625000 0.207698
vt 0.625000 0.296167
vt 0.583815 0.250000
vt 0.583815 0.296167
vt 0.583815 0.207698
vt 0.328833 0.707698
vt 0.375000 0.707698
vt 0.416185 0.707698
vt 0.416185 0.796167
vt 0.328833 0.750000
vt 0.671167 0.707698
vt 0.625000 0.796167
vt 0.583815 0.796167
vt 0.583815 0.750000
vt 0.583815 0.707698
vt 0.328833 0.542302
vt 0.328833 0.500000
vt 0.416185 0.453833
vt 0.375000 0.542302
vt 0.416185 0.542302
vt 0.625000 0.453833
vt 0.671167 0.542302
vt 0.583815 0.500000
vt 0.583815 0.542302
vt 0.583815 0.453833
s 0
usemtl head
f 73/127/15 74/130/15 76/135/15 75/133/15
f 75/133/7 76/135/7 80/140/7 79/139/7
f 79/139/16 80/140/16 78/138/16 77/137/16
f 77/137/9 78/138/9 74/131/9 73/128/9
f 75/134/4 79/139/4 77/137/4 73/129/4
f 95/167/9 97/171/9 84/148/9 82/142/9
f 101/178/16 103/182/16 98/173/16 94/166/16
f 102/180/1 90/158/1 85/149/1 96/169/1
f 83/146/15 86/152/15 92/163/15 88/155/15
f 89/156/7 91/162/7 104/183/7 100/176/7
f 81/141/17 82/144/17 83/145/17
f 84/147/18 85/150/18 86/152/18
f 87/153/19 88/154/19 89/157/19
f 90/159/20 91/161/20 92/163/20
f 93/164/21 94/165/21 95/168/21
f 96/170/22 97/171/22 98/172/22
f 99/174/23 100/175/23 101/177/23
f 102/179/24 103/181/24 104/183/24
f 87/153/25 81/141/25 83/145/25 88/154/25
f 82/143/26 84/147/26 86/152/26 83/146/26
f 85/150/27 90/159/27 92/163/27 86/152/27
f 91/162/28 89/156/28 88/155/28 92/163/28
f 99/174/29 87/153/29 89/157/29 100/175/29
f 90/160/30 102/179/30 104/183/30 91/162/30
f 103/182/31 101/178/31 100/176/31 104/183/31
f 93/164/32 99/174/32 101/178/32 94/166/32
f 102/180/33 96/169/33 98/173/33 103/182/33
f 97/171/34 95/167/34 94/166/34 98/173/34
f 81/141/35 93/164/35 95/168/35 82/144/35
f 96/170/36 85/151/36 84/148/36 97/171/36
f 177/310/16 179/316/16 180/318/16 178/313/16
f 179/316/7 183/322/7 184/323/7 180/318/7
f 183/322/15 181/320/15 182/321/15 184/323/15
f 181/320/9 177/311/9 178/314/9 182/321/9
f 179/317/4 177/312/4 181/320/4 183/322/4
f 199/350/9 186/325/9 188/331/9 201/354/9
f 205/361/15 198/349/15 202/356/15 207/365/15
f 206/363/1 200/352/1 189/332/1 194/341/1
f 187/329/16 192/338/16 196/346/16 190/335/16
f 193/339/7 204/359/7 208/366/7 195/345/7
f 185/324/21 187/328/21 186/327/21
f 188/330/22 190/335/22 189/333/22
f 191/336/23 193/340/23 192/337/23
f 194/342/24 196/346/24 195/344/24
f 197/347/17 199/351/17 198/348/17
f 200/353/18 202/355/18 201/354/18
f 203/357/19 205/360/19 204/358/19
f 206/362/20 208/366/20 207/364/20
f 191/336/32 192/337/32 187/328/32 185/324/32
f 186/326/34 187/329/34 190/335/34 188/330/34
f 189/333/33 190/335/33 196/346/33 194/342/33
f 195/345/31 196/346/31 192/338/31 193/339/31
f 203/357/29 204/358/29 193/340/29 191/336/29
f 194/343/30 195/345/30 208/366/30 206/362/30
f 207/365/28 208/366/28 204/359/28 205/361/28
f 197/347/25 198/349/25 205/361/25 203/357/25
f 206/363/27 207/365/27 202/356/27 200/352/27
f 201/354/26 202/356/26 198/349/26 199/350/26
f 185/324/35 186/327/35 199/351/35 197/347/35
f 200/353/36 201/354/36 188/331/36 189/334/36
usemtl pants
f 57/99/16 58/102/16 60/107/16 59/105/16
f 59/105/7 60/107/7 64/112/7 63/111/7
f 63/111/15 64/112/15 62/110/15 61/109/15
f 61/109/9 62/110/9 58/103/9 57/100/9
f 64/112/4 60/108/4 58/104/4 62/110/4
f 65/113/4 66/116/4 68/121/4 67/119/4
f 67/119/15 68/121/15 72/126/15 71/125/15
f 71/125/1 72/126/1 70/124/1 69/123/1
f 69/123/16 70/124/16 66/117/16 65/114/16
f 72/126/9 68/122/9 66/118/9 70/124/9
f 161/282/15 163/288/15 164/290/15 162/285/15
f 163/288/7 167/294/7 168/295/7 164/290/7
f 167/294/16 165/292/16 166/293/16 168/295/16
f 165/292/9 161/283/9 162/286/9 166/293/9
f 168/295/4 166/293/4 162/287/4 164/291/4
f 169/296/4 171/302/4 172/304/4 170/299/4
f 171/302/16 175/308/16 176/309/16 172/304/16
f 175/308/1 173/306/1 174/307/1 176/309/1
f 173/306/15 169/297/15 170/300/15 174/307/15
f 176/309/9 174/307/9 170/301/9 172/305/9
usemtl fingers
f 17/29/13 18/32/13 20/37/13 19/35/13
f 19/35/7 20/37/7 24/42/7 23/41/7
f 23/41/14 24/42/14 22/40/14 21/39/14
f 21/39/9 22/40/9 18/33/9 17/30/9
f 24/42/11 20/38/11 18/34/11 22/40/11
f 25/43/13 26/46/13 28/51/13 27/49/13
f 27/49/7 28/51/7 32/56/7 31/55/7
f 31/55/14 32/56/14 30/54/14 29/53/14
f 29/53/9 30/54/9 26/47/9 25/44/9
f 32/56/11 28/52/11 26/48/11 30/54/11
f 33/57/13 34/60/13 36/65/13 35/63/13
f 35/63/7 36/65/7 40/70/7 39/69/7
f 39/69/14 40/70/14 38/68/14 37/67/14
f 37/67/9 38/68/9 34/61/9 33/58/9
f 40/70/11 36/66/11 34/62/11 38/68/11
f 41/71/13 42/74/13 44/79/13 43/77/13
f 43/77/7 44/79/7 48/84/7 47/83/7
f 47/83/14 48/84/14 46/82/14 45/81/14
f 45/81/9 46/82/9 42/75/9 41/72/9
f 48/84/11 44/80/11 42/76/11 46/82/11
f 49/85/4 50/88/4 52/93/4 51/91/4
f 51/91/15 52/93/15 56/98/15 55/97/15
f 55/97/1 56/98/1 54/96/1 53/95/1
f 53/95/16 54/96/16 50/89/16 49/86/16
f 56/98/9 52/94/9 50/90/9 54/96/9
f 121/212/41 123/218/41 124/220/41 122/215/41
f 123/218/7 127/224/7 128/225/7 124/220/7
f 127/224/42 125/222/42 126/223/42 128/225/42
f 125/222/9 121/213/9 122/216/9 126/223/9
f 128/225/39 126/223/39 122/217/39 124/221/39
f 129/226/41 131/232/41 132/234/41 130/229/41
f 131/232/7 135/238/7 136/239/7 132/234/7
f 135/238/42 133/236/42 134/237/42 136/239/42
f 133/236/9 129/227/9 130/230/9 134/237/9
f 136/239/39 134/237/39 130/231/39 132/235/39
f 137/240/41 139/246/41 140/248/41 138/243/41
f 139/246/7 143/252/7 144/253/7 140/248/7
f 143/252/42 141/250/42 142/251/42 144/253/42
f 141/250/9 137/241/9 138/244/9 142/251/9
f 144/253/39 142/251/39 138/245/39 140/249/39
f 145/254/41 147/260/41 148/262/41 146/257/41
f 147/260/7 151/266/7 152/267/7 148/262/7
f 151/266/42 149/264/42 150/265/42 152/267/42
f 149/264/9 145/255/9 146/258/9 150/265/9
f 152/267/39 150/265/39 146/259/39 148/263/39
f 153/268/4 155/274/4 156/276/4 154/271/4
f 155/274/16 159/280/16 160/281/16 156/276/16
f 159/280/1 157/278/1 158/279/1 160/281/1
f 157/278/15 153/269/15 154/272/15 158/279/15
f 160/281/9 158/279/9 154/273/9 156/277/9
usemtl torso_mat
f 1/1/1 5/5/1 7/9/1 3/3/1
f 4/4/2 3/3/2 7/10/2 8/12/2
f 8/13/3 7/11/3 5/6/3 6/8/3
f 6/7/4 2/2/4 4/4/4 8/14/4
f 2/2/5 1/1/5 3/3/5 4/4/5
f 6/8/6 5/6/6 1/1/6 2/2/6
f 9/15/7 10/18/7 12/23/7 11/21/7
f 11/21/8 12/23/8 16/28/8 15/27/8
f 15/27/9 16/28/9 14/26/9 13/25/9
f 13/25/10 14/26/10 10/19/10 9/16/10
f 11/22/11 15/27/11 13/25/11 9/17/11
f 16/28/12 12/24/12 10/20/12 14/26/12
f 105/184/1 107/186/1 111/192/1 109/188/1
f 108/187/2 112/195/2 111/193/2 107/186/2
f 112/196/5 110/191/5 109/189/5 111/194/5
f 110/190/4 112/197/4 108/187/4 106/185/4
f 106/185/3 108/187/3 107/186/3 105/184/3
f 110/191/6 106/185/6 105/184/6 109/189/6
f 113/198/7 115/204/7 116/206/7 114/201/7
f 115/204/37 119/210/37 120/211/37 116/206/37
f 119/210/9 117/208/9 118/209/9 120/211/9
f 117/208/38 113/199/38 114/202/38 118/209/38
f 115/205/39 113/200/39 117/208/39 119/210/39
f 120/211/40 118/209/40 114/203/40 116/207/40
usemtl Material
f 19/36/12 23/41/12 21/39/12 17/31/12
f 27/50/12 31/55/12 29/53/12 25/45/12
f 35/64/12 39/69/12 37/67/12 33/59/12
f 43/78/12 47/83/12 45/81/12 41/73/12
f 51/92/7 55/97/7 53/95/7 49/87/7
f 59/106/1 63/111/1 61/109/1 57/101/1
f 67/120/7 71/125/7 69/123/7 65/115/7
f 80/140/1 76/136/1 74/132/1 78/138/1
f 87/153/4 99/174/4 93/164/4 81/141/4
f 123/219/40 121/214/40 125/222/40 127/224/40
f 131/233/40 129/228/40 133/236/40 135/238/40
f 139/247/40 137/242/40 141/250/40 143/252/40
f 147/261/40 145/256/40 149/264/40 151/266/40
f 155/275/7 153/270/7 157/278/7 159/280/7
f 163/289/1 161/284/1 165/292/1 167/294/1
f 171/303/7 169/298/7 173/306/7 175/308/7
f 184/323/1 182/321/1 178/315/1 180/319/1
f 191/336/4 185/324/4 197/347/4 203/357/4
